<?xml version="1.0" encoding="UTF-8"?>
<svg width="886px" height="278px" viewBox="0 0 886 278" version="1.1" xmlns="http://www.w3.org/2000/svg" xmlns:xlink="http://www.w3.org/1999/xlink">
    <!-- Generator: Sketch 61.2 (89653) - https://sketch.com -->
    <title>Elements / Logos / just dice color</title>
    <desc>Created with Sketch.</desc>
    <g id="Elements-/-Logos-/-just-dice-color" stroke="none" stroke-width="1" fill="none" fill-rule="evenodd">
        <g id="Just-Dice-Logo-White" transform="translate(1.000000, 19.000000)">
            <g id="Group">
                <g transform="translate(809.000000, 105.000000)"></g>
                <g transform="translate(0.063218, 0.546448)">
                    <path d="M403.492529,111.224044 L403.492529,102.693443 L348.499425,102.693443 C336.533333,102.693443 326.731322,112.497268 326.731322,124.465574 L326.731322,209.00765 C326.731322,220.975956 336.533333,230.779781 348.499425,230.779781 L433.025862,230.779781 C444.991954,230.779781 454.793966,220.975956 454.793966,209.00765 L454.793966,138.598361 L430.861782,138.598361 C415.840517,138.598361 403.492529,126.248087 403.492529,111.224044 Z M359.574425,144.073224 C354.60977,145.346448 349.517816,142.29071 348.244828,137.197814 C346.971839,132.23224 350.027011,127.139344 355.118966,125.86612 C360.083621,124.592896 365.175575,127.648634 366.448563,132.74153 C367.594253,137.707104 364.53908,142.8 359.574425,144.073224 Z M392.672126,175.64918 C387.707471,176.922404 382.615517,173.866667 381.342529,168.77377 C380.06954,163.808197 383.124713,158.715301 388.216667,157.442077 C393.181322,156.168852 398.273276,159.22459 399.546264,164.317486 C400.819253,169.28306 397.76408,174.375956 392.672126,175.64918 Z M425.260632,208.498361 C420.295977,209.771585 415.204023,206.715847 413.931034,201.622951 C412.658046,196.657377 415.713218,191.564481 420.805172,190.291257 C425.769828,189.018033 430.861782,192.07377 432.13477,197.166667 C433.28046,202.259563 430.225287,207.352459 425.260632,208.498361 Z" id="Shape" fill="#131148"></path>
                    <path d="M515.179326,4.45355191 L430.694237,4.45355191 C418.733998,4.45355191 408.936782,14.2507686 408.936782,26.2110072 L408.936782,110.696097 C408.936782,122.656335 418.733998,132.453552 430.694237,132.453552 L515.179326,132.453552 C527.139565,132.453552 536.936782,122.656335 536.936782,110.696097 L536.936782,26.2110072 C536.936782,14.2507686 527.139565,4.45355191 515.179326,4.45355191 Z M449.525251,103.061902 C448.252885,108.024128 443.290658,111.077806 438.201195,109.932677 C433.238968,108.660311 430.185291,103.698085 431.33042,98.6086215 C432.602786,93.6463949 437.565012,90.5927169 442.654475,91.7378461 C447.616702,93.010212 450.67038,98.0996752 449.525251,103.061902 Z M449.525251,70.8710469 C448.252885,75.8332736 443.290658,78.8869515 438.201195,77.7418223 C433.238968,76.4694565 430.185291,71.5072298 431.33042,66.4177666 C432.602786,61.45554 437.565012,58.4018621 442.654475,59.5469913 C447.616702,60.8193571 450.67038,65.7815837 449.525251,70.8710469 Z M449.525251,38.5529555 C448.252885,43.5151821 443.290658,46.5688601 438.201195,45.4237308 C433.238968,44.151365 430.185291,39.1891384 431.33042,34.0996752 C432.602786,29.1374485 437.565012,26.0837706 442.654475,27.2288998 C447.616702,28.5012656 450.67038,33.5907289 449.525251,38.5529555 Z M515.179326,103.061902 C513.906961,108.024128 508.944734,111.077806 503.855271,109.932677 C498.893044,108.660311 495.839366,103.698085 496.984495,98.6086215 C498.256861,93.6463949 503.219088,90.5927169 508.308551,91.7378461 C513.398014,93.010212 516.451692,98.0996752 515.179326,103.061902 Z M515.179326,70.8710469 C513.906961,75.8332736 508.944734,78.8869515 503.855271,77.7418223 C498.893044,76.4694565 495.839366,71.5072298 496.984495,66.4177666 C498.256861,61.45554 503.219088,58.4018621 508.308551,59.5469913 C513.398014,60.8193571 516.451692,65.7815837 515.179326,70.8710469 Z M515.179326,38.5529555 C513.906961,43.5151821 508.944734,46.5688601 503.855271,45.4237308 C498.893044,44.151365 495.839366,39.1891384 496.984495,34.0996752 C498.256861,29.1374485 503.219088,26.0837706 508.308551,27.2288998 C513.398014,28.5012656 516.451692,33.5907289 515.179326,38.5529555 Z" id="Shape" fill="#00BA58"></path>
                    <path d="M389.744253,3.63661202 L365.430172,3.63661202 L312.346552,3.63661202 C309.418678,3.63661202 307.891092,5.29180328 307.891092,8.09289617 L307.891092,26.8092896 C307.891092,29.7377049 309.545977,31.2655738 312.346552,31.2655738 L336.660632,31.2655738 L336.660632,35.0852459 L336.660632,78.247541 L336.660632,83.4677596 C336.660632,85.6322404 338.442816,87.2874317 340.479598,87.2874317 L361.483908,87.2874317 C363.647989,87.2874317 365.302874,85.504918 365.302874,83.4677596 L365.302874,78.247541 L365.302874,35.2125683 L365.302874,31.3928962 L389.744253,31.3928962 C392.672126,31.3928962 394.199713,29.7377049 394.199713,26.936612 L394.199713,8.09289617 C394.199713,5.16448087 392.544828,3.63661202 389.744253,3.63661202" id="Path" fill="#131148"></path>
                    <path d="M550.286494,109.059563 L550.286494,127.775956 C550.286494,130.06776 552.068678,131.977596 554.360057,132.23224 C572.181897,134.014754 585.420977,147.256284 585.420977,167.245902 C585.420977,188.763388 571.8,202.514208 551.941379,202.514208 L535.774425,202.514208 C530.80977,202.514208 526.736207,198.439891 526.736207,193.474317 L526.736207,156.04153 L526.736207,151.585246 C526.736207,149.16612 524.699425,147.128962 522.280747,147.128962 L517.825287,147.128962 L507.004885,147.128962 L502.549425,147.128962 C500.130747,147.128962 498.093966,149.16612 498.093966,151.585246 L498.093966,156.04153 L498.093966,200.349727 L498.093966,221.103279 L498.093966,225.559563 C498.093966,228.487978 499.748851,230.015847 502.549425,230.015847 L507.004885,230.015847 L551.941379,230.015847 C586.693966,230.015847 613.044828,202.64153 613.044828,167.118579 C613.044828,133.505464 587.457759,107.022404 555.123851,104.603279 C552.450575,104.348634 550.286494,106.513115 550.286494,109.059563 Z" id="Path" fill="#131148"></path>
                    <path d="M0.209770115,92.7622951 C0.0824712644,89.7065574 1.61005747,88.0513661 4.53793103,88.0513661 L24.5238506,88.0513661 C27.1971264,88.0513661 28.5974138,89.7065574 29.233908,92.5076503 C30.2522989,100.656284 34.8350575,103.839344 43.2367816,103.839344 C53.166092,103.839344 57.6215517,99.3830601 57.6215517,91.6163934 L57.6215517,8.09289617 C57.6215517,5.16448087 59.2764368,3.63661202 62.0770115,3.63661202 L81.8083333,3.63661202 C84.7362069,3.63661202 86.2637931,5.29180328 86.2637931,8.09289617 L86.2637931,91.7437158 C86.2637931,119.5 65.3867816,131.977596 43.1094828,131.977596 C21.9778736,131.977596 2.24655172,120.645902 0.209770115,92.7622951" id="Path" fill="#131148"></path>
                    <path d="M104.34023,90.5978142 L104.34023,8.09289617 C104.34023,5.16448087 105.995115,3.63661202 108.79569,3.63661202 L128.527011,3.63661202 C131.454885,3.63661202 132.982471,5.29180328 132.982471,8.09289617 L132.982471,88.1786885 C132.982471,97.7278689 137.437931,103.966667 150.931609,103.966667 C164.425287,103.966667 168.880747,97.7278689 168.880747,88.1786885 L168.880747,8.09289617 C168.880747,5.16448087 170.535632,3.63661202 173.336207,3.63661202 L193.067529,3.63661202 C195.995402,3.63661202 197.522989,5.29180328 197.522989,8.09289617 L197.522989,90.5978142 C197.522989,117.590164 176.645977,131.977596 150.80431,131.977596 C125.217241,131.977596 104.34023,117.590164 104.34023,90.5978142" id="Path" fill="#131148"></path>
                    <path d="M211.78046,94.5448087 C211.653161,91.489071 213.435345,89.8338798 216.23592,89.8338798 L235.967241,89.8338798 C238.640517,89.8338798 240.040805,91.2344262 240.677299,94.1628415 C242.077586,100.656284 247.551437,103.839344 258.117241,103.839344 C269.828736,103.839344 273.520402,99.3830601 273.520402,94.1628415 C273.520402,86.7781421 264.482184,83.595082 253.534483,79.7754098 C235.712644,73.6639344 213.308046,66.279235 213.308046,38.7775956 C213.308046,13.5677596 233.803161,0.96284153 255.189368,0.96284153 C276.193678,0.96284153 296.306897,12.2945355 298.470977,38.3956284 C298.598276,41.4513661 296.816092,43.1065574 294.015517,43.1065574 L274.284195,43.1065574 C271.61092,43.1065574 270.210632,41.7060109 269.574138,38.7775956 C268.173851,32.1568306 263.463793,29.1010929 255.189368,29.1010929 C246.151149,29.1010929 242.077586,33.557377 242.077586,38.7775956 C242.077586,46.2896175 249.46092,49.9819672 259.899425,53.6743169 C277.848563,59.9131148 302.289943,66.4065574 302.289943,94.1628415 C302.289943,119.372678 282.176724,131.977596 258.117241,131.977596 C234.566954,131.977596 213.94454,120.645902 211.78046,94.5448087" id="Path" fill="#131148"></path>
                    <path d="M632.63046,104.475956 L652.361782,104.475956 C655.289655,104.475956 656.817241,106.131148 656.817241,108.93224 L656.817241,225.814208 C656.817241,228.742623 655.162356,230.270492 652.361782,230.270492 L632.63046,230.270492 C629.702586,230.270492 628.175,228.615301 628.175,225.814208 L628.175,108.93224 C628.175,106.003825 629.829885,104.475956 632.63046,104.475956" id="Path" fill="#131148"></path>
                    <path d="M669.419828,167.373224 C669.419828,130.322404 696.916379,101.929508 734.851437,101.929508 C763.620977,101.929508 788.062356,119.881967 795.44569,146.110383 C796.209483,149.16612 794.554598,151.203279 791.499425,151.203279 L770.367816,151.203279 C767.821839,151.203279 766.421552,149.930055 765.275862,147.638251 C760.183908,136.688525 748.599713,130.06776 734.851437,130.06776 C712.574138,130.06776 698.189368,144.964481 698.189368,167.500546 C698.189368,190.036612 712.574138,204.933333 734.851437,204.933333 C748.472414,204.933333 760.183908,198.312568 765.275862,187.362842 C766.294253,185.071038 767.821839,183.797814 770.367816,183.797814 L791.626724,183.797814 C794.681897,183.797814 796.336782,185.580328 795.572989,188.508743 C788.571552,214.737158 763.875575,233.071585 734.978736,233.071585 C696.916379,232.81694 669.419828,204.424044 669.419828,167.373224" id="Path" fill="#131148"></path>
                    <path d="M884.936782,207.097814 L884.936782,225.814208 C884.936782,228.742623 883.281897,230.270492 880.481322,230.270492 L818.486782,230.270492 L814.031322,230.270492 C811.103448,230.270492 809.575862,228.615301 809.575862,225.814208 L809.575862,108.93224 C809.575862,106.003825 811.230747,104.475956 814.031322,104.475956 L838.345402,104.475956 L879.717529,104.475956 C882.645402,104.475956 884.172989,106.131148 884.172989,108.93224 L884.172989,127.648634 C884.172989,130.577049 882.518103,132.104918 879.717529,132.104918 L838.345402,132.104918 L838.345402,153.240437 L875.262069,153.240437 C878.189943,153.240437 879.717529,154.895628 879.717529,157.696721 L879.717529,175.64918 C879.717529,178.577596 878.062644,180.105464 875.262069,180.105464 L838.345402,180.105464 L838.345402,202.64153 L880.608621,202.64153 C883.281897,202.64153 884.936782,204.296721 884.936782,207.097814" id="Path" fill="#131148"></path>
                </g>
            </g>
        </g>
    </g>
</svg>